<svg xmlns="http://www.w3.org/2000/svg" xmlns:xlink="http://www.w3.org/1999/xlink" width="500" zoomAndPan="magnify" viewBox="0 0 375 374.999991" height="500" preserveAspectRatio="xMidYMid meet" version="1.0"><defs><g/><clipPath id="86bae05856"><path d="M 131.25 131.25 L 243.75 131.25 L 243.75 243.75 L 131.25 243.75 Z M 131.25 131.25 " clip-rule="nonzero"/></clipPath></defs><rect x="-37.5" width="450" fill="#ffffff" y="-37.499999" height="449.999989" fill-opacity="1"/><rect x="-37.5" width="450" fill="#ffffff" y="-37.499999" height="449.999989" fill-opacity="1"/><g clip-path="url(#86bae05856)"><path fill="#ffffff" d="M 131.25 131.25 L 243.75 131.25 L 243.75 243.75 L 131.25 243.75 Z M 131.25 131.25 " fill-opacity="1" fill-rule="nonzero"/></g><g fill="#fb923c" fill-opacity="1"><g transform="translate(134.285152, 201.749987)"><g><path d="M 8.890625 -27.125 L 8.890625 -4.484375 L 21.078125 -4.484375 L 21.078125 0 L 3.53125 0 L 3.53125 -27.125 Z M 8.890625 -27.125 "/></g></g></g><g fill="#fb923c" fill-opacity="1"><g transform="translate(156.249384, 201.749987)"><g><path d="M 14.78125 0.390625 C 12.300781 0.390625 10.109375 -0.113281 8.203125 -1.125 C 6.304688 -2.144531 4.820312 -3.695312 3.75 -5.78125 C 2.675781 -7.863281 2.140625 -10.457031 2.140625 -13.5625 C 2.140625 -16.664062 2.675781 -19.257812 3.75 -21.34375 C 4.820312 -23.425781 6.304688 -24.972656 8.203125 -25.984375 C 10.109375 -27.003906 12.300781 -27.515625 14.78125 -27.515625 C 17.269531 -27.515625 19.460938 -27.007812 21.359375 -26 C 23.253906 -25 24.734375 -23.453125 25.796875 -21.359375 C 26.867188 -19.265625 27.40625 -16.664062 27.40625 -13.5625 C 27.40625 -10.457031 26.867188 -7.859375 25.796875 -5.765625 C 24.734375 -3.679688 23.253906 -2.132812 21.359375 -1.125 C 19.460938 -0.113281 17.269531 0.390625 14.78125 0.390625 Z M 14.78125 -4.265625 C 17.082031 -4.265625 18.835938 -5.003906 20.046875 -6.484375 C 21.265625 -7.960938 21.875 -10.320312 21.875 -13.5625 C 21.875 -16.800781 21.265625 -19.160156 20.046875 -20.640625 C 18.835938 -22.128906 17.082031 -22.875 14.78125 -22.875 C 12.46875 -22.875 10.703125 -22.128906 9.484375 -20.640625 C 8.265625 -19.160156 7.65625 -16.800781 7.65625 -13.5625 C 7.65625 -10.320312 8.265625 -7.960938 9.484375 -6.484375 C 10.703125 -5.003906 12.46875 -4.265625 14.78125 -4.265625 Z M 14.78125 -4.265625 "/></g></g></g><g fill="#fb923c" fill-opacity="1"><g transform="translate(185.800923, 201.749987)"><g><path d="M 14.78125 0.390625 C 12.300781 0.390625 10.109375 -0.113281 8.203125 -1.125 C 6.304688 -2.144531 4.820312 -3.695312 3.75 -5.78125 C 2.675781 -7.863281 2.140625 -10.457031 2.140625 -13.5625 C 2.140625 -16.664062 2.675781 -19.257812 3.75 -21.34375 C 4.820312 -23.425781 6.304688 -24.972656 8.203125 -25.984375 C 10.109375 -27.003906 12.300781 -27.515625 14.78125 -27.515625 C 17.269531 -27.515625 19.460938 -27.007812 21.359375 -26 C 23.253906 -25 24.734375 -23.453125 25.796875 -21.359375 C 26.867188 -19.265625 27.40625 -16.664062 27.40625 -13.5625 C 27.40625 -10.457031 26.867188 -7.859375 25.796875 -5.765625 C 24.734375 -3.679688 23.253906 -2.132812 21.359375 -1.125 C 19.460938 -0.113281 17.269531 0.390625 14.78125 0.390625 Z M 14.78125 -4.265625 C 17.082031 -4.265625 18.835938 -5.003906 20.046875 -6.484375 C 21.265625 -7.960938 21.875 -10.320312 21.875 -13.5625 C 21.875 -16.800781 21.265625 -19.160156 20.046875 -20.640625 C 18.835938 -22.128906 17.082031 -22.875 14.78125 -22.875 C 12.46875 -22.875 10.703125 -22.128906 9.484375 -20.640625 C 8.265625 -19.160156 7.65625 -16.800781 7.65625 -13.5625 C 7.65625 -10.320312 8.265625 -7.960938 9.484375 -6.484375 C 10.703125 -5.003906 12.46875 -4.265625 14.78125 -4.265625 Z M 14.78125 -4.265625 "/></g></g></g><g fill="#fb923c" fill-opacity="1"><g transform="translate(215.352461, 201.749987)"><g><path d="M 3.53125 0 L 3.53125 -27.125 L 14.421875 -27.125 C 17.222656 -27.125 19.335938 -26.476562 20.765625 -25.1875 C 22.203125 -23.894531 22.921875 -22.109375 22.921875 -19.828125 C 22.921875 -18.191406 22.5 -16.847656 21.65625 -15.796875 C 20.820312 -14.742188 19.578125 -13.9375 17.921875 -13.375 L 17.921875 -12.984375 C 18.773438 -12.617188 19.460938 -12.070312 19.984375 -11.34375 C 20.515625 -10.613281 21.015625 -9.53125 21.484375 -8.09375 L 24.203125 0 L 18.6875 0 L 16.03125 -8.109375 C 15.757812 -8.921875 15.453125 -9.550781 15.109375 -10 C 14.773438 -10.457031 14.34375 -10.785156 13.8125 -10.984375 C 13.289062 -11.191406 12.609375 -11.296875 11.765625 -11.296875 L 8.890625 -11.296875 L 8.890625 0 Z M 13.765625 -15.546875 C 16.367188 -15.546875 17.671875 -16.757812 17.671875 -19.1875 C 17.671875 -21.644531 16.367188 -22.875 13.765625 -22.875 L 8.890625 -22.875 L 8.890625 -15.546875 Z M 13.765625 -15.546875 "/></g></g></g></svg>