<svg xmlns="http://www.w3.org/2000/svg" xmlns:xlink="http://www.w3.org/1999/xlink" width="500" zoomAndPan="magnify" viewBox="0 0 375 374.999991" height="500" preserveAspectRatio="xMidYMid meet" version="1.0"><defs><g/><clipPath id="c46a1e9ddc"><path d="M 0 82.402344 L 374.003906 82.402344 L 374.003906 292.597656 L 0 292.597656 Z M 0 82.402344 " clip-rule="nonzero"/></clipPath></defs><g clip-path="url(#c46a1e9ddc)"><path fill="#ffffff" d="M 0 82.402344 L 374.003906 82.402344 L 374.003906 292.597656 L 0 292.597656 Z M 0 82.402344 " fill-opacity="1" fill-rule="nonzero"/></g><g fill="#fb923c" fill-opacity="1"><g transform="translate(3.515629, 237.651114)"><g><path d="M 30.640625 -93.515625 L 30.640625 -15.484375 L 72.671875 -15.484375 L 72.671875 0 L 12.15625 0 L 12.15625 -93.515625 Z M 30.640625 -93.515625 "/></g></g></g><g fill="#fb923c" fill-opacity="1"><g transform="translate(79.245483, 237.651114)"><g><path d="M 50.984375 1.34375 C 42.410156 1.34375 34.847656 -0.398438 28.296875 -3.890625 C 21.753906 -7.390625 16.628906 -12.734375 12.921875 -19.921875 C 9.210938 -27.109375 7.359375 -36.054688 7.359375 -46.765625 C 7.359375 -57.460938 9.210938 -66.40625 12.921875 -73.59375 C 16.628906 -80.78125 21.753906 -86.117188 28.296875 -89.609375 C 34.847656 -93.109375 42.410156 -94.859375 50.984375 -94.859375 C 59.554688 -94.859375 67.101562 -93.117188 73.625 -89.640625 C 80.144531 -86.171875 85.25 -80.832031 88.9375 -73.625 C 92.625 -66.414062 94.46875 -57.460938 94.46875 -46.765625 C 94.46875 -36.054688 92.625 -27.097656 88.9375 -19.890625 C 85.25 -12.679688 80.144531 -7.335938 73.625 -3.859375 C 67.101562 -0.390625 59.554688 1.34375 50.984375 1.34375 Z M 50.984375 -14.71875 C 58.910156 -14.71875 64.960938 -17.265625 69.140625 -22.359375 C 73.328125 -27.453125 75.421875 -35.585938 75.421875 -46.765625 C 75.421875 -57.929688 73.328125 -66.070312 69.140625 -71.1875 C 64.960938 -76.3125 58.910156 -78.875 50.984375 -78.875 C 43.003906 -78.875 36.914062 -76.3125 32.71875 -71.1875 C 28.519531 -66.070312 26.421875 -57.929688 26.421875 -46.765625 C 26.421875 -35.585938 28.519531 -27.453125 32.71875 -22.359375 C 36.914062 -17.265625 43.003906 -14.71875 50.984375 -14.71875 Z M 50.984375 -14.71875 "/></g></g></g><g fill="#fb923c" fill-opacity="1"><g transform="translate(181.135396, 237.651114)"><g><path d="M 50.984375 1.34375 C 42.410156 1.34375 34.847656 -0.398438 28.296875 -3.890625 C 21.753906 -7.390625 16.628906 -12.734375 12.921875 -19.921875 C 9.210938 -27.109375 7.359375 -36.054688 7.359375 -46.765625 C 7.359375 -57.460938 9.210938 -66.40625 12.921875 -73.59375 C 16.628906 -80.78125 21.753906 -86.117188 28.296875 -89.609375 C 34.847656 -93.109375 42.410156 -94.859375 50.984375 -94.859375 C 59.554688 -94.859375 67.101562 -93.117188 73.625 -89.640625 C 80.144531 -86.171875 85.25 -80.832031 88.9375 -73.625 C 92.625 -66.414062 94.46875 -57.460938 94.46875 -46.765625 C 94.46875 -36.054688 92.625 -27.097656 88.9375 -19.890625 C 85.25 -12.679688 80.144531 -7.335938 73.625 -3.859375 C 67.101562 -0.390625 59.554688 1.34375 50.984375 1.34375 Z M 50.984375 -14.71875 C 58.910156 -14.71875 64.960938 -17.265625 69.140625 -22.359375 C 73.328125 -27.453125 75.421875 -35.585938 75.421875 -46.765625 C 75.421875 -57.929688 73.328125 -66.070312 69.140625 -71.1875 C 64.960938 -76.3125 58.910156 -78.875 50.984375 -78.875 C 43.003906 -78.875 36.914062 -76.3125 32.71875 -71.1875 C 28.519531 -66.070312 26.421875 -57.929688 26.421875 -46.765625 C 26.421875 -35.585938 28.519531 -27.453125 32.71875 -22.359375 C 36.914062 -17.265625 43.003906 -14.71875 50.984375 -14.71875 Z M 50.984375 -14.71875 "/></g></g></g><g fill="#fb923c" fill-opacity="1"><g transform="translate(283.025309, 237.651114)"><g><path d="M 12.15625 0 L 12.15625 -93.515625 L 49.703125 -93.515625 C 59.378906 -93.515625 66.679688 -91.285156 71.609375 -86.828125 C 76.535156 -82.367188 79 -76.21875 79 -68.375 C 79 -62.707031 77.554688 -58.0625 74.671875 -54.4375 C 71.796875 -50.8125 67.503906 -48.039062 61.796875 -46.125 L 61.796875 -44.78125 C 64.734375 -43.5 67.109375 -41.597656 68.921875 -39.078125 C 70.734375 -36.566406 72.453125 -32.835938 74.078125 -27.890625 L 83.40625 0 L 64.40625 0 L 55.265625 -27.953125 C 54.328125 -30.765625 53.269531 -32.945312 52.09375 -34.5 C 50.925781 -36.0625 49.4375 -37.191406 47.625 -37.890625 C 45.8125 -38.597656 43.453125 -38.953125 40.546875 -38.953125 L 30.640625 -38.953125 L 30.640625 0 Z M 47.46875 -53.609375 C 56.414062 -53.609375 60.890625 -57.785156 60.890625 -66.140625 C 60.890625 -74.628906 56.414062 -78.875 47.46875 -78.875 L 30.640625 -78.875 L 30.640625 -53.609375 Z M 47.46875 -53.609375 "/></g></g></g></svg>