<svg xmlns="http://www.w3.org/2000/svg" xmlns:xlink="http://www.w3.org/1999/xlink" width="500" zoomAndPan="magnify" viewBox="0 0 375 374.999991" height="500" preserveAspectRatio="xMidYMid meet" version="1.0"><defs><g/><clipPath id="ee8298ff4a"><path d="M 131.25 131.25 L 243.75 131.25 L 243.75 243.75 L 131.25 243.75 Z M 131.25 131.25 " clip-rule="nonzero"/></clipPath></defs><g fill="#fb923c" fill-opacity="1"><g transform="translate(4.054692, 237.652264)"><g><path d="M 30.640625 -93.5 L 30.640625 -15.484375 L 72.65625 -15.484375 L 72.65625 0 L 12.15625 0 L 12.15625 -93.5 Z M 30.640625 -93.5 "/></g></g></g><g fill="#fb923c" fill-opacity="1"><g transform="translate(79.770995, 237.652264)"><g><path d="M 50.96875 1.34375 C 42.40625 1.34375 34.847656 -0.398438 28.296875 -3.890625 C 21.753906 -7.390625 16.628906 -12.734375 12.921875 -19.921875 C 9.210938 -27.109375 7.359375 -36.050781 7.359375 -46.75 C 7.359375 -57.457031 9.210938 -66.398438 12.921875 -73.578125 C 16.628906 -80.765625 21.753906 -86.101562 28.296875 -89.59375 C 34.847656 -93.09375 42.40625 -94.84375 50.96875 -94.84375 C 59.539062 -94.84375 67.085938 -93.101562 73.609375 -89.625 C 80.140625 -86.15625 85.25 -80.816406 88.9375 -73.609375 C 92.625 -66.410156 94.46875 -57.457031 94.46875 -46.75 C 94.46875 -36.050781 92.625 -27.097656 88.9375 -19.890625 C 85.25 -12.679688 80.140625 -7.335938 73.609375 -3.859375 C 67.085938 -0.390625 59.539062 1.34375 50.96875 1.34375 Z M 50.96875 -14.703125 C 58.90625 -14.703125 64.960938 -17.25 69.140625 -22.34375 C 73.316406 -27.445312 75.40625 -35.582031 75.40625 -46.75 C 75.40625 -57.925781 73.316406 -66.070312 69.140625 -71.1875 C 64.960938 -76.300781 58.90625 -78.859375 50.96875 -78.859375 C 43 -78.859375 36.914062 -76.300781 32.71875 -71.1875 C 28.519531 -66.070312 26.421875 -57.925781 26.421875 -46.75 C 26.421875 -35.582031 28.519531 -27.445312 32.71875 -22.34375 C 36.914062 -17.25 43 -14.703125 50.96875 -14.703125 Z M 50.96875 -14.703125 "/></g></g></g><g fill="#fb923c" fill-opacity="1"><g transform="translate(181.642677, 237.652264)"><g><path d="M 50.96875 1.34375 C 42.40625 1.34375 34.847656 -0.398438 28.296875 -3.890625 C 21.753906 -7.390625 16.628906 -12.734375 12.921875 -19.921875 C 9.210938 -27.109375 7.359375 -36.050781 7.359375 -46.75 C 7.359375 -57.457031 9.210938 -66.398438 12.921875 -73.578125 C 16.628906 -80.765625 21.753906 -86.101562 28.296875 -89.59375 C 34.847656 -93.09375 42.40625 -94.84375 50.96875 -94.84375 C 59.539062 -94.84375 67.085938 -93.101562 73.609375 -89.625 C 80.140625 -86.15625 85.25 -80.816406 88.9375 -73.609375 C 92.625 -66.410156 94.46875 -57.457031 94.46875 -46.75 C 94.46875 -36.050781 92.625 -27.097656 88.9375 -19.890625 C 85.25 -12.679688 80.140625 -7.335938 73.609375 -3.859375 C 67.085938 -0.390625 59.539062 1.34375 50.96875 1.34375 Z M 50.96875 -14.703125 C 58.90625 -14.703125 64.960938 -17.25 69.140625 -22.34375 C 73.316406 -27.445312 75.40625 -35.582031 75.40625 -46.75 C 75.40625 -57.925781 73.316406 -66.070312 69.140625 -71.1875 C 64.960938 -76.300781 58.90625 -78.859375 50.96875 -78.859375 C 43 -78.859375 36.914062 -76.300781 32.71875 -71.1875 C 28.519531 -66.070312 26.421875 -57.925781 26.421875 -46.75 C 26.421875 -35.582031 28.519531 -27.445312 32.71875 -22.34375 C 36.914062 -17.25 43 -14.703125 50.96875 -14.703125 Z M 50.96875 -14.703125 "/></g></g></g><g fill="#fb923c" fill-opacity="1"><g transform="translate(283.514359, 237.652264)"><g><path d="M 12.15625 0 L 12.15625 -93.5 L 49.6875 -93.5 C 59.375 -93.5 66.675781 -91.269531 71.59375 -86.8125 C 76.519531 -82.363281 78.984375 -76.21875 78.984375 -68.375 C 78.984375 -62.695312 77.546875 -58.046875 74.671875 -54.421875 C 71.796875 -50.796875 67.5 -48.023438 61.78125 -46.109375 L 61.78125 -44.765625 C 64.726562 -43.484375 67.101562 -41.582031 68.90625 -39.0625 C 70.71875 -36.550781 72.4375 -32.828125 74.0625 -27.890625 L 83.40625 0 L 64.40625 0 L 55.265625 -27.953125 C 54.328125 -30.765625 53.269531 -32.945312 52.09375 -34.5 C 50.914062 -36.0625 49.421875 -37.191406 47.609375 -37.890625 C 45.796875 -38.597656 43.441406 -38.953125 40.546875 -38.953125 L 30.640625 -38.953125 L 30.640625 0 Z M 47.453125 -53.59375 C 56.410156 -53.59375 60.890625 -57.769531 60.890625 -66.125 C 60.890625 -74.613281 56.410156 -78.859375 47.453125 -78.859375 L 30.640625 -78.859375 L 30.640625 -53.59375 Z M 47.453125 -53.59375 "/></g></g></g><g clip-path="url(#ee8298ff4a)"><path fill="#fb923c" d="M 131.25 131.25 L 243.75 131.25 L 243.75 243.75 L 131.25 243.75 Z M 131.25 131.25 " fill-opacity="1" fill-rule="nonzero"/></g></svg>