<svg xmlns="http://www.w3.org/2000/svg" xmlns:xlink="http://www.w3.org/1999/xlink" width="500" zoomAndPan="magnify" viewBox="0 0 375 374.999991" height="500" preserveAspectRatio="xMidYMid meet" version="1.0"><defs><g/></defs><rect x="-37.5" width="450" fill="#ffffff" y="-37.499999" height="449.999989" fill-opacity="1"/><g fill="#fb923c" fill-opacity="1"><g transform="translate(15.246097, 234.749985)"><g><path d="M 28.765625 -87.796875 L 28.765625 -14.53125 L 68.21875 -14.53125 L 68.21875 0 L 11.40625 0 L 11.40625 -87.796875 Z M 28.765625 -87.796875 "/></g></g></g><g fill="#fb923c" fill-opacity="1"><g transform="translate(86.341918, 234.749985)"><g><path d="M 47.859375 1.265625 C 39.816406 1.265625 32.722656 -0.375 26.578125 -3.65625 C 20.429688 -6.945312 15.613281 -11.960938 12.125 -18.703125 C 8.644531 -25.453125 6.90625 -33.847656 6.90625 -43.890625 C 6.90625 -53.941406 8.644531 -62.335938 12.125 -69.078125 C 15.613281 -75.828125 20.429688 -80.84375 26.578125 -84.125 C 32.722656 -87.414062 39.816406 -89.0625 47.859375 -89.0625 C 55.910156 -89.0625 63 -87.425781 69.125 -84.15625 C 75.25 -80.894531 80.039062 -75.878906 83.5 -69.109375 C 86.957031 -62.347656 88.6875 -53.941406 88.6875 -43.890625 C 88.6875 -33.847656 86.957031 -25.441406 83.5 -18.671875 C 80.039062 -11.910156 75.25 -6.894531 69.125 -3.625 C 63 -0.363281 55.910156 1.265625 47.859375 1.265625 Z M 47.859375 -13.8125 C 55.304688 -13.8125 60.988281 -16.203125 64.90625 -20.984375 C 68.832031 -25.765625 70.796875 -33.398438 70.796875 -43.890625 C 70.796875 -54.378906 68.832031 -62.023438 64.90625 -66.828125 C 60.988281 -71.640625 55.304688 -74.046875 47.859375 -74.046875 C 40.367188 -74.046875 34.648438 -71.640625 30.703125 -66.828125 C 26.765625 -62.023438 24.796875 -54.378906 24.796875 -43.890625 C 24.796875 -33.398438 26.765625 -25.765625 30.703125 -20.984375 C 34.648438 -16.203125 40.367188 -13.8125 47.859375 -13.8125 Z M 47.859375 -13.8125 "/></g></g></g><g fill="#fb923c" fill-opacity="1"><g transform="translate(181.997021, 234.749985)"><g><path d="M 47.859375 1.265625 C 39.816406 1.265625 32.722656 -0.375 26.578125 -3.65625 C 20.429688 -6.945312 15.613281 -11.960938 12.125 -18.703125 C 8.644531 -25.453125 6.90625 -33.847656 6.90625 -43.890625 C 6.90625 -53.941406 8.644531 -62.335938 12.125 -69.078125 C 15.613281 -75.828125 20.429688 -80.84375 26.578125 -84.125 C 32.722656 -87.414062 39.816406 -89.0625 47.859375 -89.0625 C 55.910156 -89.0625 63 -87.425781 69.125 -84.15625 C 75.25 -80.894531 80.039062 -75.878906 83.5 -69.109375 C 86.957031 -62.347656 88.6875 -53.941406 88.6875 -43.890625 C 88.6875 -33.847656 86.957031 -25.441406 83.5 -18.671875 C 80.039062 -11.910156 75.25 -6.894531 69.125 -3.625 C 63 -0.363281 55.910156 1.265625 47.859375 1.265625 Z M 47.859375 -13.8125 C 55.304688 -13.8125 60.988281 -16.203125 64.90625 -20.984375 C 68.832031 -25.765625 70.796875 -33.398438 70.796875 -43.890625 C 70.796875 -54.378906 68.832031 -62.023438 64.90625 -66.828125 C 60.988281 -71.640625 55.304688 -74.046875 47.859375 -74.046875 C 40.367188 -74.046875 34.648438 -71.640625 30.703125 -66.828125 C 26.765625 -62.023438 24.796875 -54.378906 24.796875 -43.890625 C 24.796875 -33.398438 26.765625 -25.765625 30.703125 -20.984375 C 34.648438 -16.203125 40.367188 -13.8125 47.859375 -13.8125 Z M 47.859375 -13.8125 "/></g></g></g><g fill="#fb923c" fill-opacity="1"><g transform="translate(277.652125, 234.749985)"><g><path d="M 11.40625 0 L 11.40625 -87.796875 L 46.65625 -87.796875 C 55.75 -87.796875 62.601562 -85.703125 67.21875 -81.515625 C 71.84375 -77.335938 74.15625 -71.5625 74.15625 -64.1875 C 74.15625 -58.863281 72.804688 -54.5 70.109375 -51.09375 C 67.410156 -47.695312 63.378906 -45.097656 58.015625 -43.296875 L 58.015625 -42.03125 C 60.773438 -40.832031 63.003906 -39.050781 64.703125 -36.6875 C 66.398438 -34.320312 68.007812 -30.820312 69.53125 -26.1875 L 78.3125 0 L 60.46875 0 L 51.890625 -26.25 C 51.003906 -28.882812 50.007812 -30.929688 48.90625 -32.390625 C 47.8125 -33.859375 46.410156 -34.921875 44.703125 -35.578125 C 43.003906 -36.242188 40.796875 -36.578125 38.078125 -36.578125 L 28.765625 -36.578125 L 28.765625 0 Z M 44.5625 -50.328125 C 52.96875 -50.328125 57.171875 -54.25 57.171875 -62.09375 C 57.171875 -70.0625 52.96875 -74.046875 44.5625 -74.046875 L 28.765625 -74.046875 L 28.765625 -50.328125 Z M 44.5625 -50.328125 "/></g></g></g></svg>